<svg width="185" height="52" viewBox="0 0 185 52" fill="none" xmlns="http://www.w3.org/2000/svg">
<rect width="185" height="52" fill="#518581"/>
<path d="M33.3497 31.8462C30.1209 32.5916 26.8992 30.5785 26.1537 27.3497C25.4083 24.1209 27.4215 20.8992 30.6503 20.1538C33.879 19.4083 37.1008 21.4215 37.8462 24.6503L39.7949 24.2004C38.801 19.8953 34.5054 17.2111 30.2004 18.205C25.8953 19.1989 23.2111 23.4946 24.205 27.7996C25.1989 32.1046 29.4945 34.7888 33.7996 33.795L33.3497 31.8462Z" fill="white"/>
<path d="M58.2139 19.2031V32H56.5439V19.2031H58.2139ZM62.3271 19.2031V20.5918H52.4395V19.2031H62.3271ZM67.0469 32.1758C66.3848 32.1758 65.7842 32.0645 65.2451 31.8418C64.7119 31.6133 64.252 31.2939 63.8652 30.8838C63.4844 30.4736 63.1914 29.9873 62.9863 29.4248C62.7812 28.8623 62.6787 28.2471 62.6787 27.5791V27.21C62.6787 26.4365 62.793 25.748 63.0215 25.1445C63.25 24.5352 63.5605 24.0195 63.9531 23.5977C64.3457 23.1758 64.791 22.8564 65.2891 22.6396C65.7871 22.4229 66.3027 22.3145 66.8359 22.3145C67.5156 22.3145 68.1016 22.4316 68.5938 22.666C69.0918 22.9004 69.499 23.2285 69.8154 23.6504C70.1318 24.0664 70.3662 24.5586 70.5186 25.127C70.6709 25.6895 70.7471 26.3047 70.7471 26.9727V27.7021H63.6455V26.375H69.1211V26.252C69.0977 25.8301 69.0098 25.4199 68.8574 25.0215C68.7109 24.623 68.4766 24.2949 68.1543 24.0371C67.832 23.7793 67.3926 23.6504 66.8359 23.6504C66.4668 23.6504 66.127 23.7295 65.8164 23.8877C65.5059 24.04 65.2393 24.2686 65.0166 24.5732C64.7939 24.8779 64.6211 25.25 64.498 25.6895C64.375 26.1289 64.3135 26.6357 64.3135 27.21V27.5791C64.3135 28.0303 64.375 28.4551 64.498 28.8535C64.627 29.2461 64.8115 29.5918 65.0518 29.8906C65.2979 30.1895 65.5938 30.4238 65.9395 30.5938C66.291 30.7637 66.6895 30.8486 67.1348 30.8486C67.709 30.8486 68.1953 30.7314 68.5938 30.4971C68.9922 30.2627 69.3408 29.9492 69.6396 29.5566L70.624 30.3389C70.4189 30.6494 70.1582 30.9453 69.8418 31.2266C69.5254 31.5078 69.1357 31.7363 68.6729 31.9121C68.2158 32.0879 67.6738 32.1758 67.0469 32.1758ZM74.4121 22.4902V32H72.7861V22.4902H74.4121ZM80.6523 22.4902L76.1436 27.9395H73.8672L73.6211 26.5156H75.4844L78.6748 22.4902H80.6523ZM78.9033 32L75.4053 27.6934L76.4512 26.5156L80.9688 32H78.9033ZM86.0488 30.8398C86.4355 30.8398 86.793 30.7607 87.1211 30.6025C87.4492 30.4443 87.7188 30.2275 87.9297 29.9521C88.1406 29.6709 88.2607 29.3516 88.29 28.9941H89.8369C89.8076 29.5566 89.6172 30.0811 89.2656 30.5674C88.9199 31.0479 88.4658 31.4375 87.9033 31.7363C87.3408 32.0293 86.7227 32.1758 86.0488 32.1758C85.334 32.1758 84.71 32.0498 84.1768 31.7979C83.6494 31.5459 83.21 31.2002 82.8584 30.7607C82.5127 30.3213 82.252 29.8174 82.0762 29.249C81.9062 28.6748 81.8213 28.0684 81.8213 27.4297V27.0605C81.8213 26.4219 81.9062 25.8184 82.0762 25.25C82.252 24.6758 82.5127 24.1689 82.8584 23.7295C83.21 23.29 83.6494 22.9443 84.1768 22.6924C84.71 22.4404 85.334 22.3145 86.0488 22.3145C86.793 22.3145 87.4434 22.4668 88 22.7715C88.5566 23.0703 88.9932 23.4805 89.3096 24.002C89.6318 24.5176 89.8076 25.1035 89.8369 25.7598H88.29C88.2607 25.3672 88.1494 25.0127 87.9561 24.6963C87.7686 24.3799 87.5107 24.1279 87.1826 23.9404C86.8604 23.7471 86.4824 23.6504 86.0488 23.6504C85.5508 23.6504 85.1318 23.75 84.792 23.9492C84.458 24.1426 84.1914 24.4062 83.9922 24.7402C83.7988 25.0684 83.6582 25.4346 83.5703 25.8389C83.4883 26.2373 83.4473 26.6445 83.4473 27.0605V27.4297C83.4473 27.8457 83.4883 28.2559 83.5703 28.6602C83.6523 29.0645 83.79 29.4307 83.9834 29.7588C84.1826 30.0869 84.4492 30.3506 84.7832 30.5498C85.123 30.7432 85.5449 30.8398 86.0488 30.8398ZM95.541 22.4902V32H93.9062V22.4902H95.541ZM98.7314 22.4902V23.8086H90.7773V22.4902H98.7314ZM106.562 22.4902V32H104.937V22.4902H106.562ZM112.803 22.4902L108.294 27.9395H106.018L105.771 26.5156H107.635L110.825 22.4902H112.803ZM111.054 32L107.556 27.6934L108.602 26.5156L113.119 32H111.054ZM120.985 26.6123V27.9307H115.958V26.6123H120.985ZM116.301 22.4902V32H114.675V22.4902H116.301ZM122.304 22.4902V32H120.669V22.4902H122.304ZM124.492 27.3506V27.1484C124.492 26.4629 124.592 25.8271 124.791 25.2412C124.99 24.6494 125.277 24.1367 125.652 23.7031C126.027 23.2637 126.481 22.9238 127.015 22.6836C127.548 22.4375 128.146 22.3145 128.808 22.3145C129.476 22.3145 130.076 22.4375 130.609 22.6836C131.148 22.9238 131.605 23.2637 131.98 23.7031C132.361 24.1367 132.651 24.6494 132.851 25.2412C133.05 25.8271 133.149 26.4629 133.149 27.1484V27.3506C133.149 28.0361 133.05 28.6719 132.851 29.2578C132.651 29.8438 132.361 30.3564 131.98 30.7959C131.605 31.2295 131.151 31.5693 130.618 31.8154C130.091 32.0557 129.493 32.1758 128.825 32.1758C128.157 32.1758 127.557 32.0557 127.023 31.8154C126.49 31.5693 126.033 31.2295 125.652 30.7959C125.277 30.3564 124.99 29.8438 124.791 29.2578C124.592 28.6719 124.492 28.0361 124.492 27.3506ZM126.118 27.1484V27.3506C126.118 27.8252 126.174 28.2734 126.285 28.6953C126.396 29.1113 126.563 29.4805 126.786 29.8027C127.015 30.125 127.299 30.3799 127.639 30.5674C127.979 30.749 128.374 30.8398 128.825 30.8398C129.271 30.8398 129.66 30.749 129.994 30.5674C130.334 30.3799 130.615 30.125 130.838 29.8027C131.061 29.4805 131.228 29.1113 131.339 28.6953C131.456 28.2734 131.515 27.8252 131.515 27.3506V27.1484C131.515 26.6797 131.456 26.2373 131.339 25.8213C131.228 25.3994 131.058 25.0273 130.829 24.7051C130.606 24.377 130.325 24.1191 129.985 23.9316C129.651 23.7441 129.259 23.6504 128.808 23.6504C128.362 23.6504 127.97 23.7441 127.63 23.9316C127.296 24.1191 127.015 24.377 126.786 24.7051C126.563 25.0273 126.396 25.3994 126.285 25.8213C126.174 26.2373 126.118 26.6797 126.118 27.1484ZM141.525 22.4902V23.835H136.718V22.4902H141.525ZM136.955 22.4902V32H135.329V22.4902H136.955ZM142.967 22.4902V32H141.332V22.4902H142.967ZM147.344 22.4902V32H145.718V22.4902H147.344ZM153.584 22.4902L149.075 27.9395H146.799L146.553 26.5156H148.416L151.606 22.4902H153.584ZM151.835 32L148.337 27.6934L149.383 26.5156L153.9 32H151.835ZM157.073 29.4248L161.459 22.4902H163.094V32H161.459V25.0654L157.073 32H155.456V22.4902H157.073V29.4248Z" fill="white"/>
</svg>
