<svg width="154" height="52" viewBox="0 0 154 52" fill="none" xmlns="http://www.w3.org/2000/svg">
<rect width="153" height="52" transform="translate(0.5)" fill="#518581"/>
<path d="M26.7139 19.2031V32H25.0439V19.2031H26.7139ZM30.8271 19.2031V20.5918H20.9395V19.2031H30.8271ZM35.5469 32.1758C34.8848 32.1758 34.2842 32.0645 33.7451 31.8418C33.2119 31.6133 32.752 31.2939 32.3652 30.8838C31.9844 30.4736 31.6914 29.9873 31.4863 29.4248C31.2812 28.8623 31.1787 28.2471 31.1787 27.5791V27.21C31.1787 26.4365 31.293 25.748 31.5215 25.1445C31.75 24.5352 32.0605 24.0195 32.4531 23.5977C32.8457 23.1758 33.291 22.8564 33.7891 22.6396C34.2871 22.4229 34.8027 22.3145 35.3359 22.3145C36.0156 22.3145 36.6016 22.4316 37.0938 22.666C37.5918 22.9004 37.999 23.2285 38.3154 23.6504C38.6318 24.0664 38.8662 24.5586 39.0186 25.127C39.1709 25.6895 39.2471 26.3047 39.2471 26.9727V27.7021H32.1455V26.375H37.6211V26.252C37.5977 25.8301 37.5098 25.4199 37.3574 25.0215C37.2109 24.623 36.9766 24.2949 36.6543 24.0371C36.332 23.7793 35.8926 23.6504 35.3359 23.6504C34.9668 23.6504 34.627 23.7295 34.3164 23.8877C34.0059 24.04 33.7393 24.2686 33.5166 24.5732C33.2939 24.8779 33.1211 25.25 32.998 25.6895C32.875 26.1289 32.8135 26.6357 32.8135 27.21V27.5791C32.8135 28.0303 32.875 28.4551 32.998 28.8535C33.127 29.2461 33.3115 29.5918 33.5518 29.8906C33.7979 30.1895 34.0938 30.4238 34.4395 30.5938C34.791 30.7637 35.1895 30.8486 35.6348 30.8486C36.209 30.8486 36.6953 30.7314 37.0938 30.4971C37.4922 30.2627 37.8408 29.9492 38.1396 29.5566L39.124 30.3389C38.9189 30.6494 38.6582 30.9453 38.3418 31.2266C38.0254 31.5078 37.6357 31.7363 37.1729 31.9121C36.7158 32.0879 36.1738 32.1758 35.5469 32.1758ZM42.9121 22.4902V32H41.2861V22.4902H42.9121ZM49.1523 22.4902L44.6436 27.9395H42.3672L42.1211 26.5156H43.9844L47.1748 22.4902H49.1523ZM47.4033 32L43.9053 27.6934L44.9512 26.5156L49.4688 32H47.4033ZM54.5488 30.8398C54.9355 30.8398 55.293 30.7607 55.6211 30.6025C55.9492 30.4443 56.2188 30.2275 56.4297 29.9521C56.6406 29.6709 56.7607 29.3516 56.79 28.9941H58.3369C58.3076 29.5566 58.1172 30.0811 57.7656 30.5674C57.4199 31.0479 56.9658 31.4375 56.4033 31.7363C55.8408 32.0293 55.2227 32.1758 54.5488 32.1758C53.834 32.1758 53.21 32.0498 52.6768 31.7979C52.1494 31.5459 51.71 31.2002 51.3584 30.7607C51.0127 30.3213 50.752 29.8174 50.5762 29.249C50.4062 28.6748 50.3213 28.0684 50.3213 27.4297V27.0605C50.3213 26.4219 50.4062 25.8184 50.5762 25.25C50.752 24.6758 51.0127 24.1689 51.3584 23.7295C51.71 23.29 52.1494 22.9443 52.6768 22.6924C53.21 22.4404 53.834 22.3145 54.5488 22.3145C55.293 22.3145 55.9434 22.4668 56.5 22.7715C57.0566 23.0703 57.4932 23.4805 57.8096 24.002C58.1318 24.5176 58.3076 25.1035 58.3369 25.7598H56.79C56.7607 25.3672 56.6494 25.0127 56.4561 24.6963C56.2686 24.3799 56.0107 24.1279 55.6826 23.9404C55.3604 23.7471 54.9824 23.6504 54.5488 23.6504C54.0508 23.6504 53.6318 23.75 53.292 23.9492C52.958 24.1426 52.6914 24.4062 52.4922 24.7402C52.2988 25.0684 52.1582 25.4346 52.0703 25.8389C51.9883 26.2373 51.9473 26.6445 51.9473 27.0605V27.4297C51.9473 27.8457 51.9883 28.2559 52.0703 28.6602C52.1523 29.0645 52.29 29.4307 52.4834 29.7588C52.6826 30.0869 52.9492 30.3506 53.2832 30.5498C53.623 30.7432 54.0449 30.8398 54.5488 30.8398ZM64.041 22.4902V32H62.4062V22.4902H64.041ZM67.2314 22.4902V23.8086H59.2773V22.4902H67.2314ZM75.0625 22.4902V32H73.4365V22.4902H75.0625ZM81.3027 22.4902L76.7939 27.9395H74.5176L74.2715 26.5156H76.1348L79.3252 22.4902H81.3027ZM79.5537 32L76.0557 27.6934L77.1016 26.5156L81.6191 32H79.5537ZM89.4854 26.6123V27.9307H84.458V26.6123H89.4854ZM84.8008 22.4902V32H83.1748V22.4902H84.8008ZM90.8037 22.4902V32H89.1689V22.4902H90.8037ZM92.9922 27.3506V27.1484C92.9922 26.4629 93.0918 25.8271 93.291 25.2412C93.4902 24.6494 93.7773 24.1367 94.1523 23.7031C94.5273 23.2637 94.9814 22.9238 95.5146 22.6836C96.0479 22.4375 96.6455 22.3145 97.3076 22.3145C97.9756 22.3145 98.5762 22.4375 99.1094 22.6836C99.6484 22.9238 100.105 23.2637 100.48 23.7031C100.861 24.1367 101.151 24.6494 101.351 25.2412C101.55 25.8271 101.649 26.4629 101.649 27.1484V27.3506C101.649 28.0361 101.55 28.6719 101.351 29.2578C101.151 29.8438 100.861 30.3564 100.48 30.7959C100.105 31.2295 99.6514 31.5693 99.1182 31.8154C98.5908 32.0557 97.9932 32.1758 97.3252 32.1758C96.6572 32.1758 96.0566 32.0557 95.5234 31.8154C94.9902 31.5693 94.5332 31.2295 94.1523 30.7959C93.7773 30.3564 93.4902 29.8438 93.291 29.2578C93.0918 28.6719 92.9922 28.0361 92.9922 27.3506ZM94.6182 27.1484V27.3506C94.6182 27.8252 94.6738 28.2734 94.7852 28.6953C94.8965 29.1113 95.0635 29.4805 95.2861 29.8027C95.5146 30.125 95.7988 30.3799 96.1387 30.5674C96.4785 30.749 96.874 30.8398 97.3252 30.8398C97.7705 30.8398 98.1602 30.749 98.4941 30.5674C98.834 30.3799 99.1152 30.125 99.3379 29.8027C99.5605 29.4805 99.7275 29.1113 99.8389 28.6953C99.9561 28.2734 100.015 27.8252 100.015 27.3506V27.1484C100.015 26.6797 99.9561 26.2373 99.8389 25.8213C99.7275 25.3994 99.5576 25.0273 99.3291 24.7051C99.1064 24.377 98.8252 24.1191 98.4854 23.9316C98.1514 23.7441 97.7588 23.6504 97.3076 23.6504C96.8623 23.6504 96.4697 23.7441 96.1299 23.9316C95.7959 24.1191 95.5146 24.377 95.2861 24.7051C95.0635 25.0273 94.8965 25.3994 94.7852 25.8213C94.6738 26.2373 94.6182 26.6797 94.6182 27.1484ZM110.025 22.4902V23.835H105.218V22.4902H110.025ZM105.455 22.4902V32H103.829V22.4902H105.455ZM111.467 22.4902V32H109.832V22.4902H111.467ZM115.844 22.4902V32H114.218V22.4902H115.844ZM122.084 22.4902L117.575 27.9395H115.299L115.053 26.5156H116.916L120.106 22.4902H122.084ZM120.335 32L116.837 27.6934L117.883 26.5156L122.4 32H120.335ZM125.573 29.4248L129.959 22.4902H131.594V32H129.959V25.0654L125.573 32H123.956V22.4902H125.573V29.4248Z" fill="white"/>
</svg>
